ply
format ascii 1.0
comment Created by Blender 2.78 (sub 0) - www.blender.org, source file: ''
element vertex 152
property float x
property float y
property float z
property float nx
property float ny
property float nz
element face 86
property list uchar uint vertex_indices
end_header
-2.985367 -2.192167 2.841214 -1.000000 0.000000 0.000000
-2.985367 -2.192167 3.133786 -1.000000 0.000000 0.000000
-2.985367 2.192167 3.133786 -1.000000 0.000000 0.000000
-2.985367 2.192167 2.841214 -1.000000 0.000000 0.000000
-2.985367 2.192167 2.841214 0.000000 1.000000 0.000000
-2.985367 2.192167 3.133786 0.000000 1.000000 0.000000
2.985367 2.192167 3.133786 0.000000 1.000000 0.000000
2.985367 2.192167 2.841214 0.000000 1.000000 0.000000
2.985367 2.192167 2.841214 1.000000 0.000000 0.000000
2.985367 2.192167 3.133786 1.000000 0.000000 0.000000
2.985367 -2.192167 3.133786 1.000000 0.000000 0.000000
2.985367 -2.192167 2.841214 1.000000 0.000000 0.000000
2.985367 -2.192167 2.841214 0.000000 -1.000000 0.000000
2.985367 -2.192167 3.133786 0.000000 -1.000000 0.000000
-2.985367 -2.192167 3.133786 0.000000 -1.000000 0.000000
-2.985367 -2.192167 2.841214 0.000000 -1.000000 0.000000
2.985367 -2.192167 2.841214 0.000000 0.000000 -1.000000
-2.985367 -2.192167 2.841214 0.000000 0.000000 -1.000000
-2.985367 2.192167 2.841214 0.000000 0.000000 -1.000000
2.985367 2.192167 2.841214 0.000000 0.000000 -1.000000
2.985367 2.192167 3.133786 0.000000 0.000000 1.000000
-2.985367 2.192167 3.133786 0.000000 0.000000 1.000000
-2.985367 -2.192167 3.133786 0.000000 0.000000 1.000000
2.985367 -2.192167 3.133786 0.000000 0.000000 1.000000
2.500000 -1.250000 0.000000 0.000000 1.000000 0.000000
2.500000 -1.250000 3.000000 0.000000 1.000000 0.000000
2.676777 -1.323223 3.000000 0.707083 0.707083 0.000000
2.676777 -1.323223 0.000000 0.707083 0.707083 0.000000
2.750000 -1.500000 3.000000 1.000000 0.000000 0.000000
2.750000 -1.500000 0.000000 1.000000 0.000000 0.000000
2.676777 -1.676777 3.000000 0.707083 -0.707083 0.000000
2.676777 -1.676777 0.000000 0.707083 -0.707083 0.000000
2.500000 -1.750000 3.000000 0.000000 -1.000000 0.000000
2.500000 -1.750000 0.000000 0.000000 -1.000000 0.000000
2.323223 -1.676777 3.000000 -0.707083 -0.707083 0.000000
2.323223 -1.676777 0.000000 -0.707083 -0.707083 0.000000
2.250000 -1.500000 3.000000 -1.000000 0.000000 0.000000
2.250000 -1.500000 0.000000 -1.000000 0.000000 0.000000
2.750000 -1.500000 3.000000 0.000000 0.000000 1.000000
2.676777 -1.323223 3.000000 0.000000 0.000000 1.000000
2.500000 -1.250000 3.000000 0.000000 0.000000 1.000000
2.323223 -1.323223 3.000000 0.000000 0.000000 1.000000
2.250000 -1.500000 3.000000 0.000000 0.000000 1.000000
2.323223 -1.676777 3.000000 0.000000 0.000000 1.000000
2.500000 -1.750000 3.000000 0.000000 0.000000 1.000000
2.676777 -1.676777 3.000000 0.000000 0.000000 1.000000
2.323223 -1.323223 3.000000 -0.707083 0.707083 0.000000
2.323223 -1.323223 0.000000 -0.707083 0.707083 0.000000
2.323223 -1.323223 0.000000 0.000000 0.000000 -1.000000
2.500000 -1.250000 0.000000 0.000000 0.000000 -1.000000
2.676777 -1.323223 0.000000 0.000000 0.000000 -1.000000
2.750000 -1.500000 0.000000 0.000000 0.000000 -1.000000
2.676777 -1.676777 0.000000 0.000000 0.000000 -1.000000
2.500000 -1.750000 0.000000 0.000000 0.000000 -1.000000
2.323223 -1.676777 0.000000 0.000000 0.000000 -1.000000
2.250000 -1.500000 0.000000 0.000000 0.000000 -1.000000
2.500000 1.750000 0.000000 0.000000 1.000000 0.000000
2.500000 1.750000 3.000000 0.000000 1.000000 0.000000
2.676777 1.676777 3.000000 0.707083 0.707083 0.000000
2.676777 1.676777 0.000000 0.707083 0.707083 0.000000
2.750000 1.500000 3.000000 1.000000 0.000000 0.000000
2.750000 1.500000 0.000000 1.000000 0.000000 0.000000
2.676777 1.323223 3.000000 0.707083 -0.707083 0.000000
2.676777 1.323223 0.000000 0.707083 -0.707083 0.000000
2.500000 1.250000 3.000000 0.000000 -1.000000 0.000000
2.500000 1.250000 0.000000 0.000000 -1.000000 0.000000
2.323223 1.323223 3.000000 -0.707083 -0.707083 0.000000
2.323223 1.323223 0.000000 -0.707083 -0.707083 0.000000
2.250000 1.500000 3.000000 -1.000000 0.000000 0.000000
2.250000 1.500000 0.000000 -1.000000 0.000000 0.000000
2.750000 1.500000 3.000000 0.000000 0.000000 1.000000
2.676777 1.676777 3.000000 0.000000 0.000000 1.000000
2.500000 1.750000 3.000000 0.000000 0.000000 1.000000
2.323223 1.676777 3.000000 0.000000 0.000000 1.000000
2.250000 1.500000 3.000000 0.000000 0.000000 1.000000
2.323223 1.323223 3.000000 0.000000 0.000000 1.000000
2.500000 1.250000 3.000000 0.000000 0.000000 1.000000
2.676777 1.323223 3.000000 0.000000 0.000000 1.000000
2.323223 1.676777 3.000000 -0.707083 0.707083 0.000000
2.323223 1.676777 0.000000 -0.707083 0.707083 0.000000
2.323223 1.676777 0.000000 0.000000 0.000000 -1.000000
2.500000 1.750000 0.000000 0.000000 0.000000 -1.000000
2.676777 1.676777 0.000000 0.000000 0.000000 -1.000000
2.750000 1.500000 0.000000 0.000000 0.000000 -1.000000
2.676777 1.323223 0.000000 0.000000 0.000000 -1.000000
2.500000 1.250000 0.000000 0.000000 0.000000 -1.000000
2.323223 1.323223 0.000000 0.000000 0.000000 -1.000000
2.250000 1.500000 0.000000 0.000000 0.000000 -1.000000
-2.500000 1.750000 -0.000000 0.000000 1.000000 0.000000
-2.500000 1.750000 3.000000 0.000000 1.000000 0.000000
-2.323223 1.676777 3.000000 0.707083 0.707083 0.000000
-2.323223 1.676777 -0.000000 0.707083 0.707083 0.000000
-2.250000 1.500000 3.000000 0.999969 0.000000 0.000000
-2.250000 1.500000 -0.000000 0.999969 0.000000 0.000000
-2.323223 1.323223 3.000000 0.707083 -0.707083 0.000000
-2.323223 1.323223 -0.000000 0.707083 -0.707083 0.000000
-2.500000 1.250000 3.000000 0.000000 -1.000000 0.000000
-2.500000 1.250000 -0.000000 0.000000 -1.000000 0.000000
-2.676777 1.323223 3.000000 -0.707083 -0.707083 0.000000
-2.676777 1.323223 -0.000000 -0.707083 -0.707083 0.000000
-2.750000 1.500000 3.000000 -0.999969 0.000000 0.000000
-2.750000 1.500000 -0.000000 -0.999969 0.000000 0.000000
-2.250000 1.500000 3.000000 0.000000 0.000000 1.000000
-2.323223 1.676777 3.000000 0.000000 0.000000 1.000000
-2.500000 1.750000 3.000000 0.000000 0.000000 1.000000
-2.676777 1.676777 3.000000 0.000000 0.000000 1.000000
-2.750000 1.500000 3.000000 0.000000 0.000000 1.000000
-2.676777 1.323223 3.000000 0.000000 0.000000 1.000000
-2.500000 1.250000 3.000000 0.000000 0.000000 1.000000
-2.323223 1.323223 3.000000 0.000000 0.000000 1.000000
-2.676777 1.676777 3.000000 -0.707083 0.707083 0.000000
-2.676777 1.676777 -0.000000 -0.707083 0.707083 0.000000
-2.676777 1.676777 -0.000000 0.000000 0.000000 -1.000000
-2.500000 1.750000 -0.000000 0.000000 0.000000 -1.000000
-2.323223 1.676777 -0.000000 0.000000 0.000000 -1.000000
-2.250000 1.500000 -0.000000 0.000000 0.000000 -1.000000
-2.323223 1.323223 -0.000000 0.000000 0.000000 -1.000000
-2.500000 1.250000 -0.000000 0.000000 0.000000 -1.000000
-2.676777 1.323223 -0.000000 0.000000 0.000000 -1.000000
-2.750000 1.500000 -0.000000 0.000000 0.000000 -1.000000
-2.500000 -1.250000 -0.000000 0.000000 1.000000 0.000000
-2.500000 -1.250000 3.000000 0.000000 1.000000 0.000000
-2.323223 -1.323223 3.000000 0.707083 0.707083 0.000000
-2.323223 -1.323223 -0.000000 0.707083 0.707083 0.000000
-2.250000 -1.500000 3.000000 0.999969 0.000000 0.000000
-2.250000 -1.500000 -0.000000 0.999969 0.000000 0.000000
-2.323223 -1.676777 3.000000 0.707083 -0.707083 0.000000
-2.323223 -1.676777 -0.000000 0.707083 -0.707083 0.000000
-2.500000 -1.750000 3.000000 0.000000 -1.000000 0.000000
-2.500000 -1.750000 -0.000000 0.000000 -1.000000 0.000000
-2.676777 -1.676777 3.000000 -0.707083 -0.707083 0.000000
-2.676777 -1.676777 -0.000000 -0.707083 -0.707083 0.000000
-2.750000 -1.500000 3.000000 -0.999969 0.000000 0.000000
-2.750000 -1.500000 -0.000000 -0.999969 0.000000 0.000000
-2.250000 -1.500000 3.000000 0.000000 0.000000 1.000000
-2.323223 -1.323223 3.000000 0.000000 0.000000 1.000000
-2.500000 -1.250000 3.000000 0.000000 0.000000 1.000000
-2.676777 -1.323223 3.000000 0.000000 0.000000 1.000000
-2.750000 -1.500000 3.000000 0.000000 0.000000 1.000000
-2.676777 -1.676777 3.000000 0.000000 0.000000 1.000000
-2.500000 -1.750000 3.000000 0.000000 0.000000 1.000000
-2.323223 -1.676777 3.000000 0.000000 0.000000 1.000000
-2.676777 -1.323223 3.000000 -0.707083 0.707083 0.000000
-2.676777 -1.323223 -0.000000 -0.707083 0.707083 0.000000
-2.676777 -1.323223 -0.000000 0.000000 0.000000 -1.000000
-2.500000 -1.250000 -0.000000 0.000000 0.000000 -1.000000
-2.323223 -1.323223 -0.000000 0.000000 0.000000 -1.000000
-2.250000 -1.500000 -0.000000 0.000000 0.000000 -1.000000
-2.323223 -1.676777 -0.000000 0.000000 0.000000 -1.000000
-2.500000 -1.750000 -0.000000 0.000000 0.000000 -1.000000
-2.676777 -1.676777 -0.000000 0.000000 0.000000 -1.000000
-2.750000 -1.500000 -0.000000 0.000000 0.000000 -1.000000
4 0 1 2 3
4 4 5 6 7
4 8 9 10 11
4 12 13 14 15
4 16 17 18 19
4 20 21 22 23
4 24 25 26 27
4 27 26 28 29
4 29 28 30 31
4 31 30 32 33
4 33 32 34 35
4 35 34 36 37
3 38 39 40
3 40 41 42
3 42 43 44
3 44 45 38
3 38 40 42
3 42 44 38
4 37 36 46 47
4 47 46 25 24
3 48 49 50
3 50 51 52
3 52 53 54
3 54 55 48
3 48 50 52
3 52 54 48
4 56 57 58 59
4 59 58 60 61
4 61 60 62 63
4 63 62 64 65
4 65 64 66 67
4 67 66 68 69
3 70 71 72
3 72 73 74
3 74 75 76
3 76 77 70
3 70 72 74
3 74 76 70
4 69 68 78 79
4 79 78 57 56
3 80 81 82
3 82 83 84
3 84 85 86
3 86 87 80
3 80 82 84
3 84 86 80
4 88 89 90 91
4 91 90 92 93
4 93 92 94 95
4 95 94 96 97
4 97 96 98 99
4 99 98 100 101
3 102 103 104
3 104 105 106
3 106 107 108
3 108 109 102
3 102 104 106
3 106 108 102
4 101 100 110 111
4 111 110 89 88
3 112 113 114
3 114 115 116
3 116 117 118
3 118 119 112
3 112 114 116
3 116 118 112
4 120 121 122 123
4 123 122 124 125
4 125 124 126 127
4 127 126 128 129
4 129 128 130 131
4 131 130 132 133
3 134 135 136
3 136 137 138
3 138 139 140
3 140 141 134
3 134 136 138
3 138 140 134
4 133 132 142 143
4 143 142 121 120
3 144 145 146
3 146 147 148
3 148 149 150
3 150 151 144
3 144 146 148
3 148 150 144
