ply
format ascii 1.0
comment Created by Blender 2.78 (sub 0) - www.blender.org, source file: ''
element vertex 216
property float x
property float y
property float z
property float nx
property float ny
property float nz
property float s
property float t
element face 124
property list uchar uint vertex_indices
end_header
-2.985367 3.133786 2.192167 -1.000000 0.000000 0.000000 0.979148 0.500000
-2.985367 2.841214 -2.192167 -1.000000 0.000000 0.000000 1.000000 0.000000
-2.985367 2.841214 2.192167 -1.000000 0.000000 0.000000 1.000000 0.500000
-2.985367 3.133786 -2.192167 0.000000 0.000000 -1.000000 0.979148 0.000000
2.985367 2.841214 -2.192167 0.000000 0.000000 -1.000000 0.958295 0.680917
-2.985367 2.841214 -2.192167 0.000000 0.000000 -1.000000 0.958295 0.000000
2.985367 3.133786 -2.192167 1.000000 -0.000000 0.000000 0.979148 1.000000
2.985367 2.841214 2.192167 1.000000 -0.000000 0.000000 1.000000 0.500000
2.985367 2.841214 -2.192167 1.000000 -0.000000 0.000000 1.000000 1.000000
2.985367 3.133786 2.192167 0.000000 -0.000000 1.000000 0.958295 0.000000
-2.985367 2.841214 2.192167 0.000000 -0.000000 1.000000 0.937443 0.680917
2.985367 2.841214 2.192167 0.000000 -0.000000 1.000000 0.937443 0.000000
2.985367 2.841214 -2.192167 0.000000 -1.000000 0.000000 0.468722 0.000000
-2.985367 2.841214 2.192167 0.000000 -1.000000 0.000000 0.937443 0.680917
-2.985367 2.841214 -2.192167 0.000000 -1.000000 0.000000 0.468722 0.680917
-2.985367 3.133786 -2.192167 0.000000 1.000000 -0.000000 0.468722 0.680917
2.985367 3.133786 2.192167 0.000000 1.000000 -0.000000 0.000000 0.000000
2.985367 3.133786 -2.192167 0.000000 1.000000 -0.000000 0.468721 0.000000
2.500000 3.000000 1.250000 0.382682 -0.000000 -0.923880 0.245686 0.909001
2.676777 0.000000 1.323223 0.382682 -0.000000 -0.923880 0.226787 0.680917
2.500000 0.000000 1.250000 0.382682 -0.000000 -0.923880 0.245686 0.680917
2.676777 3.000000 1.323223 0.923880 -0.000000 -0.382682 0.491372 0.909001
2.750000 0.000000 1.500000 0.923880 -0.000000 -0.382682 0.472473 0.680917
2.676777 0.000000 1.323223 0.923880 -0.000000 -0.382682 0.491372 0.680917
2.750000 3.000000 1.500000 0.923880 0.000000 0.382682 0.472473 0.909001
2.676777 0.000000 1.676777 0.923880 0.000000 0.382682 0.453574 0.680917
2.750000 0.000000 1.500000 0.923880 0.000000 0.382682 0.472473 0.680917
2.676777 3.000000 1.676777 0.382682 0.000000 0.923880 0.037798 0.680917
2.500000 0.000000 1.750000 0.382682 0.000000 0.923880 0.056697 0.909001
2.676777 0.000000 1.676777 0.382682 0.000000 0.923880 0.037798 0.909001
2.500000 3.000000 1.750000 -0.382682 0.000000 0.923880 0.056697 0.680917
2.323223 0.000000 1.676777 -0.382682 0.000000 0.923880 0.075596 0.909001
2.500000 0.000000 1.750000 -0.382682 0.000000 0.923880 0.056697 0.909001
2.323223 3.000000 1.676777 -0.923880 0.000000 0.382682 0.340180 0.680917
2.250000 0.000000 1.500000 -0.923880 0.000000 0.382682 0.359079 0.909001
2.323223 0.000000 1.676777 -0.923880 0.000000 0.382682 0.340180 0.909001
2.250000 3.000000 1.500000 0.000000 1.000000 0.000000 0.738456 0.733597
2.676777 3.000000 1.676777 0.000000 1.000000 0.000000 0.703535 0.696346
2.750000 3.000000 1.500000 0.000000 1.000000 0.000000 0.718000 0.680917
2.250000 3.000000 1.500000 -0.923880 -0.000000 -0.382682 0.359079 0.680917
2.323223 0.000000 1.323223 -0.923880 -0.000000 -0.382682 0.377978 0.909001
2.250000 0.000000 1.500000 -0.923880 -0.000000 -0.382682 0.359079 0.909001
2.323223 3.000000 1.323223 -0.382682 -0.000000 -0.923880 0.264585 0.909001
2.500000 0.000000 1.250000 -0.382682 -0.000000 -0.923880 0.245686 0.680917
2.323223 0.000000 1.323223 -0.382682 -0.000000 -0.923880 0.264585 0.680917
2.676777 0.000000 1.676777 0.000000 -1.000000 0.000000 0.738456 0.733597
2.323223 0.000000 1.676777 0.000000 -1.000000 0.000000 0.752920 0.770848
2.323223 0.000000 1.323223 0.000000 -1.000000 0.000000 0.718000 0.786278
2.500000 3.000000 -1.750000 0.382682 -0.000000 -0.923880 0.170090 0.680917
2.676777 -0.000000 -1.676777 0.382682 -0.000000 -0.923880 0.188989 0.909001
2.500000 -0.000000 -1.750000 0.382682 -0.000000 -0.923880 0.170090 0.909001
2.676777 3.000000 -1.676777 0.923880 -0.000000 -0.382682 0.604765 0.909001
2.750000 -0.000000 -1.500000 0.923880 -0.000000 -0.382682 0.585866 0.680917
2.676777 -0.000000 -1.676777 0.923880 -0.000000 -0.382682 0.604765 0.680917
2.750000 3.000000 -1.500000 0.923880 0.000000 0.382682 0.585866 0.909001
2.676777 -0.000000 -1.323223 0.923880 0.000000 0.382682 0.566967 0.680917
2.750000 -0.000000 -1.500000 0.923880 0.000000 0.382682 0.585866 0.680917
2.676777 3.000000 -1.323223 0.382682 0.000000 0.923880 0.075596 0.680917
2.500000 -0.000000 -1.250000 0.382682 0.000000 0.923880 0.094495 0.909001
2.676777 -0.000000 -1.323223 0.382682 0.000000 0.923880 0.075596 0.909001
2.500000 3.000000 -1.250000 -0.382682 0.000000 0.923880 0.094495 0.680917
2.323223 -0.000000 -1.323223 -0.382682 0.000000 0.923880 0.113394 0.909001
2.500000 -0.000000 -1.250000 -0.382682 0.000000 0.923880 0.094495 0.909001
2.323223 3.000000 -1.323223 -0.923880 0.000000 0.382682 0.302383 0.680917
2.250000 -0.000000 -1.500000 -0.923880 0.000000 0.382682 0.321281 0.909001
2.323223 -0.000000 -1.323223 -0.923880 0.000000 0.382682 0.302383 0.909001
2.250000 3.000000 -1.500000 0.000000 1.000000 0.000000 0.668615 0.838959
2.676777 3.000000 -1.323223 0.000000 1.000000 0.000000 0.668615 0.786278
2.750000 3.000000 -1.500000 0.000000 1.000000 0.000000 0.689071 0.786278
2.250000 3.000000 -1.500000 -0.923880 -0.000000 -0.382682 0.321281 0.680917
2.323223 -0.000000 -1.676777 -0.923880 -0.000000 -0.382682 0.340180 0.909001
2.250000 -0.000000 -1.500000 -0.923880 -0.000000 -0.382682 0.321281 0.909001
2.323223 3.000000 -1.676777 -0.382682 -0.000000 -0.923880 0.151191 0.680917
2.500000 -0.000000 -1.750000 -0.382682 -0.000000 -0.923880 0.170090 0.909001
2.323223 -0.000000 -1.676777 -0.382682 -0.000000 -0.923880 0.151191 0.909001
2.676777 -0.000000 -1.323223 0.000000 -1.000000 0.000000 0.654150 0.801708
2.323223 -0.000000 -1.323223 0.000000 -1.000000 0.000000 0.639685 0.838959
2.323223 -0.000000 -1.676777 0.000000 -1.000000 0.000000 0.604765 0.823529
-2.500000 3.000000 -1.750000 0.382682 -0.000000 -0.923880 0.283484 0.680917
-2.323223 -0.000000 -1.676777 0.382682 -0.000000 -0.923880 0.302383 0.909001
-2.500000 -0.000000 -1.750000 0.382682 -0.000000 -0.923880 0.283484 0.909001
-2.323223 3.000000 -1.676777 0.923880 -0.000000 -0.382682 0.566967 0.909001
-2.250000 -0.000000 -1.500000 0.923880 -0.000000 -0.382682 0.548068 0.680917
-2.323223 -0.000000 -1.676777 0.923880 -0.000000 -0.382682 0.566967 0.680917
-2.250000 3.000000 -1.500000 0.923880 0.000000 0.382682 0.548068 0.909001
-2.323223 -0.000000 -1.323223 0.923880 0.000000 0.382682 0.529169 0.680917
-2.250000 -0.000000 -1.500000 0.923880 0.000000 0.382682 0.548068 0.680917
-2.323223 3.000000 -1.323223 0.382682 0.000000 0.923880 0.113394 0.680917
-2.500000 -0.000000 -1.250000 0.382682 0.000000 0.923880 0.132292 0.909001
-2.323223 -0.000000 -1.323223 0.382682 0.000000 0.923880 0.113394 0.909001
-2.500000 3.000000 -1.250000 -0.382682 0.000000 0.923880 0.132292 0.680917
-2.676777 -0.000000 -1.323223 -0.382682 0.000000 0.923880 0.151191 0.909001
-2.500000 -0.000000 -1.250000 -0.382682 0.000000 0.923880 0.132292 0.909001
-2.676777 3.000000 -1.323223 -0.923880 0.000000 0.382682 0.415776 0.909001
-2.750000 -0.000000 -1.500000 -0.923880 0.000000 0.382682 0.396877 0.680917
-2.676777 -0.000000 -1.323223 -0.923880 0.000000 0.382682 0.415776 0.680917
-2.750000 3.000000 -1.500000 0.000000 1.000000 0.000000 0.703535 0.770848
-2.500000 3.000000 -1.250000 0.000000 1.000000 0.000000 0.668615 0.786278
-2.250000 3.000000 -1.500000 0.000000 1.000000 0.000000 0.654150 0.749027
-2.750000 3.000000 -1.500000 -0.923880 -0.000000 -0.382682 0.396877 0.909001
-2.676777 -0.000000 -1.676777 -0.923880 -0.000000 -0.382682 0.377978 0.680917
-2.750000 -0.000000 -1.500000 -0.923880 -0.000000 -0.382682 0.396877 0.680917
-2.676777 3.000000 -1.676777 -0.382682 -0.000000 -0.923880 0.264585 0.680917
-2.500000 -0.000000 -1.750000 -0.382682 -0.000000 -0.923880 0.283484 0.909001
-2.676777 -0.000000 -1.676777 -0.382682 -0.000000 -0.923880 0.264585 0.909001
-2.323223 -0.000000 -1.323223 -0.000000 -1.000000 0.000000 0.619229 0.680917
-2.750000 -0.000000 -1.500000 -0.000000 -1.000000 0.000000 0.654150 0.718168
-2.676777 -0.000000 -1.676777 -0.000000 -1.000000 0.000000 0.639685 0.733597
-2.500000 3.000000 1.250000 0.382682 -0.000000 -0.923880 0.207888 0.680917
-2.323223 0.000000 1.323223 0.382682 -0.000000 -0.923880 0.226787 0.909001
-2.500000 0.000000 1.250000 0.382682 -0.000000 -0.923880 0.207888 0.909001
-2.323223 3.000000 1.323223 0.923880 -0.000000 -0.382682 0.529169 0.909001
-2.250000 0.000000 1.500000 0.923880 -0.000000 -0.382682 0.510270 0.680917
-2.323223 0.000000 1.323223 0.923880 -0.000000 -0.382682 0.529169 0.680917
-2.250000 3.000000 1.500000 0.923880 0.000000 0.382682 0.510270 0.909001
-2.323223 0.000000 1.676777 0.923880 0.000000 0.382682 0.491372 0.680917
-2.250000 0.000000 1.500000 0.923880 0.000000 0.382682 0.510270 0.680917
-2.323223 3.000000 1.676777 0.382682 0.000000 0.923880 0.000000 0.680917
-2.500000 0.000000 1.750000 0.382682 0.000000 0.923880 0.018899 0.909001
-2.323223 0.000000 1.676777 0.382682 0.000000 0.923880 0.000000 0.909001
-2.500000 3.000000 1.750000 -0.382682 0.000000 0.923880 0.018899 0.680917
-2.676777 0.000000 1.676777 -0.382682 0.000000 0.923880 0.037798 0.909001
-2.500000 0.000000 1.750000 -0.382682 0.000000 0.923880 0.018899 0.909001
-2.676777 3.000000 1.676777 -0.923880 0.000000 0.382682 0.453574 0.909001
-2.750000 0.000000 1.500000 -0.923880 0.000000 0.382682 0.434675 0.680917
-2.676777 0.000000 1.676777 -0.923880 0.000000 0.382682 0.453574 0.680917
-2.750000 3.000000 1.500000 0.000000 1.000000 0.000000 0.703535 0.696347
-2.500000 3.000000 1.750000 0.000000 1.000000 0.000000 0.689071 0.733597
-2.250000 3.000000 1.500000 0.000000 1.000000 0.000000 0.654150 0.718167
-2.750000 3.000000 1.500000 -0.923880 -0.000000 -0.382682 0.434675 0.909001
-2.676777 0.000000 1.323223 -0.923880 -0.000000 -0.382682 0.415776 0.680917
-2.750000 0.000000 1.500000 -0.923880 -0.000000 -0.382682 0.434675 0.680917
-2.676777 3.000000 1.323223 -0.382682 -0.000000 -0.923880 0.188989 0.680917
-2.500000 0.000000 1.250000 -0.382682 -0.000000 -0.923880 0.207888 0.909001
-2.676777 0.000000 1.323223 -0.382682 -0.000000 -0.923880 0.188989 0.909001
-2.323223 0.000000 1.676777 0.000000 -1.000000 0.000000 0.619229 0.733597
-2.750000 0.000000 1.500000 0.000000 -1.000000 0.000000 0.654150 0.770848
-2.676777 0.000000 1.323223 0.000000 -1.000000 0.000000 0.639685 0.786278
-2.985367 3.133786 -2.192167 -1.000000 0.000000 0.000000 0.979148 0.000000
2.985367 3.133786 -2.192167 0.000000 0.000000 -1.000000 0.979148 0.680917
2.985367 3.133786 2.192167 1.000000 -0.000000 0.000000 0.979148 0.500000
-2.985367 3.133786 2.192167 0.000000 0.000000 1.000000 0.958295 0.680917
2.985367 2.841214 2.192167 0.000000 -1.000000 0.000000 0.937443 0.000000
-2.985367 3.133786 2.192167 0.000000 1.000000 0.000000 0.000000 0.680917
2.676777 3.000000 1.323223 0.382682 -0.000000 -0.923880 0.226787 0.909001
2.750000 3.000000 1.500000 0.923880 -0.000000 -0.382682 0.472473 0.909001
2.676777 3.000000 1.676777 0.923880 0.000000 0.382682 0.453574 0.909001
2.500000 3.000000 1.750000 0.382682 0.000000 0.923880 0.056697 0.680917
2.323223 3.000000 1.676777 -0.382682 0.000000 0.923880 0.075596 0.680917
2.250000 3.000000 1.500000 -0.923880 0.000000 0.382682 0.359079 0.680917
2.676777 3.000000 1.323223 0.000000 1.000000 0.000000 0.738456 0.680917
2.500000 3.000000 1.250000 0.000000 1.000000 0.000000 0.752920 0.696346
2.323223 3.000000 1.323223 0.000000 1.000000 0.000000 0.752920 0.718168
2.323223 3.000000 1.676777 0.000000 1.000000 0.000000 0.718000 0.733597
2.500000 3.000000 1.750000 0.000000 1.000000 0.000000 0.703535 0.718168
2.323223 3.000000 1.323223 -0.923880 -0.000000 -0.382682 0.377978 0.680917
2.500000 3.000000 1.250000 -0.382682 -0.000000 -0.923880 0.245686 0.909001
2.500000 0.000000 1.250000 0.000000 -1.000000 0.000000 0.703535 0.770848
2.676777 0.000000 1.323223 0.000000 -1.000000 0.000000 0.703535 0.749027
2.750000 0.000000 1.500000 -0.000000 -1.000000 0.000000 0.718000 0.733597
2.500000 0.000000 1.750000 0.000000 -1.000000 0.000000 0.752920 0.749027
2.250000 0.000000 1.500000 0.000000 -1.000000 0.000000 0.738456 0.786278
2.676777 3.000000 -1.676777 0.382682 -0.000000 -0.923880 0.188989 0.680917
2.750000 3.000000 -1.500000 0.923880 -0.000000 -0.382682 0.585866 0.909001
2.676777 3.000000 -1.323223 0.923880 0.000000 0.382682 0.566967 0.909001
2.500000 3.000000 -1.250000 0.382682 0.000000 0.923880 0.094495 0.680917
2.323223 3.000000 -1.323223 -0.382682 0.000000 0.923880 0.113393 0.680917
2.250000 3.000000 -1.500000 -0.923880 0.000000 0.382682 0.321281 0.680917
2.676777 3.000000 -1.676777 0.000000 1.000000 0.000000 0.703535 0.801708
2.500000 3.000000 -1.750000 0.000000 1.000000 0.000000 0.703535 0.823529
2.323223 3.000000 -1.676777 0.000000 1.000000 0.000000 0.689071 0.838959
2.323223 3.000000 -1.323223 0.000000 1.000000 0.000000 0.654150 0.823529
2.500000 3.000000 -1.250000 0.000000 1.000000 0.000000 0.654150 0.801708
2.323223 3.000000 -1.676777 -0.923880 -0.000000 -0.382682 0.340180 0.680917
2.500000 3.000000 -1.750000 -0.382682 -0.000000 -0.923880 0.170090 0.680917
2.500000 -0.000000 -1.750000 0.000000 -1.000000 0.000000 0.604765 0.801708
2.676777 -0.000000 -1.676777 0.000000 -1.000000 0.000000 0.619229 0.786278
2.750000 -0.000000 -1.500000 0.000000 -1.000000 0.000000 0.639685 0.786278
2.500000 -0.000000 -1.250000 0.000000 -1.000000 0.000000 0.654150 0.823529
2.250000 -0.000000 -1.500000 -0.000000 -1.000000 0.000000 0.619229 0.838959
-2.323223 3.000000 -1.676777 0.382682 -0.000000 -0.923880 0.302383 0.680917
-2.250000 3.000000 -1.500000 0.923880 -0.000000 -0.382682 0.548068 0.909001
-2.323223 3.000000 -1.323223 0.923880 0.000000 0.382682 0.529169 0.909001
-2.500000 3.000000 -1.250000 0.382682 0.000000 0.923880 0.132292 0.680917
-2.676777 3.000000 -1.323223 -0.382682 0.000000 0.923880 0.151191 0.680917
-2.750000 3.000000 -1.500000 -0.923880 0.000000 0.382682 0.396877 0.909001
-2.323223 3.000000 -1.676777 0.000000 1.000000 0.000000 0.668615 0.733597
-2.500000 3.000000 -1.750000 0.000000 1.000000 0.000000 0.689071 0.733597
-2.676777 3.000000 -1.676777 0.000000 1.000000 0.000000 0.703535 0.749027
-2.676777 3.000000 -1.323223 0.000000 1.000000 0.000000 0.689071 0.786278
-2.323223 3.000000 -1.323223 0.000000 1.000000 0.000000 0.654150 0.770848
-2.676777 3.000000 -1.676777 -0.923880 -0.000000 -0.382682 0.377978 0.909001
-2.500000 3.000000 -1.750000 -0.382682 -0.000000 -0.923880 0.283484 0.680917
-2.500000 -0.000000 -1.750000 0.000000 -1.000000 0.000000 0.619229 0.733597
-2.323223 -0.000000 -1.676777 0.000000 -1.000000 0.000000 0.604765 0.718168
-2.250000 -0.000000 -1.500000 0.000000 -1.000000 0.000000 0.604765 0.696347
-2.500000 -0.000000 -1.250000 0.000000 -1.000000 0.000000 0.639685 0.680917
-2.676777 -0.000000 -1.323223 0.000000 -1.000000 0.000000 0.654150 0.696346
-2.323223 3.000000 1.323223 0.382682 -0.000000 -0.923880 0.226787 0.680917
-2.250000 3.000000 1.500000 0.923880 -0.000000 -0.382682 0.510270 0.909001
-2.323223 3.000000 1.676777 0.923880 0.000000 0.382682 0.491371 0.909001
-2.500000 3.000000 1.750000 0.382682 0.000000 0.923880 0.018899 0.680917
-2.676777 3.000000 1.676777 -0.382682 0.000000 0.923880 0.037798 0.680917
-2.750000 3.000000 1.500000 -0.923880 0.000000 0.382682 0.434675 0.909001
-2.323223 3.000000 1.323223 0.000000 1.000000 0.000000 0.654150 0.696346
-2.500000 3.000000 1.250000 0.000000 1.000000 0.000000 0.668615 0.680917
-2.676777 3.000000 1.323223 0.000000 1.000000 0.000000 0.689071 0.680917
-2.676777 3.000000 1.676777 0.000000 1.000000 0.000000 0.703535 0.718168
-2.323223 3.000000 1.676777 0.000000 1.000000 0.000000 0.668615 0.733597
-2.676777 3.000000 1.323223 -0.923880 -0.000000 -0.382682 0.415776 0.909001
-2.500000 3.000000 1.250000 -0.382682 -0.000000 -0.923880 0.207888 0.680917
-2.500000 0.000000 1.250000 0.000000 -1.000000 0.000000 0.619229 0.786278
-2.323223 0.000000 1.323223 0.000000 -1.000000 0.000000 0.604765 0.770848
-2.250000 0.000000 1.500000 0.000000 -1.000000 0.000000 0.604765 0.749027
-2.500000 0.000000 1.750000 0.000000 -1.000000 0.000000 0.639685 0.733597
-2.676777 0.000000 1.676777 0.000000 -1.000000 0.000000 0.654150 0.749027
3 0 1 2
3 3 4 5
3 6 7 8
3 9 10 11
3 12 13 14
3 15 16 17
3 18 19 20
3 21 22 23
3 24 25 26
3 27 28 29
3 30 31 32
3 33 34 35
3 36 37 38
3 39 40 41
3 42 43 44
3 45 46 47
3 48 49 50
3 51 52 53
3 54 55 56
3 57 58 59
3 60 61 62
3 63 64 65
3 66 67 68
3 69 70 71
3 72 73 74
3 75 76 77
3 78 79 80
3 81 82 83
3 84 85 86
3 87 88 89
3 90 91 92
3 93 94 95
3 96 97 98
3 99 100 101
3 102 103 104
3 105 106 107
3 108 109 110
3 111 112 113
3 114 115 116
3 117 118 119
3 120 121 122
3 123 124 125
3 126 127 128
3 129 130 131
3 132 133 134
3 135 136 137
3 0 138 1
3 3 139 4
3 6 140 7
3 9 141 10
3 12 142 13
3 15 143 16
3 18 144 19
3 21 145 22
3 24 146 25
3 27 147 28
3 30 148 31
3 33 149 34
3 38 150 151
3 151 152 38
3 36 153 154
3 154 37 36
3 38 152 36
3 39 155 40
3 42 156 43
3 47 157 158
3 158 159 45
3 45 160 46
3 46 161 47
3 47 158 45
3 48 162 49
3 51 163 52
3 54 164 55
3 57 165 58
3 60 166 61
3 63 167 64
3 68 168 169
3 169 170 68
3 66 171 172
3 172 67 66
3 68 170 66
3 69 173 70
3 72 174 73
3 77 175 176
3 176 177 75
3 75 178 76
3 76 179 77
3 77 176 75
3 78 180 79
3 81 181 82
3 84 182 85
3 87 183 88
3 90 184 91
3 93 185 94
3 98 186 187
3 187 188 96
3 96 189 97
3 97 190 98
3 98 187 96
3 99 191 100
3 102 192 103
3 107 193 194
3 194 195 107
3 105 196 197
3 197 106 105
3 107 195 105
3 108 198 109
3 111 199 112
3 114 200 115
3 117 201 118
3 120 202 121
3 123 203 124
3 128 204 205
3 205 206 126
3 126 207 127
3 127 208 128
3 128 205 126
3 129 209 130
3 132 210 133
3 137 211 212
3 212 213 137
3 135 214 215
3 215 136 135
3 137 213 135
