ply
format ascii 1.0
comment Created by Blender 2.78 (sub 0) - www.blender.org, source file: ''
element vertex 184
property float x
property float y
property float z
property float nx
property float ny
property float nz
property float s
property float t
element face 124
property list uchar uint vertex_indices
end_header
-2.985367 -2.192167 3.133786 -1.000000 0.000000 0.000000 0.979148 0.500000
-2.985367 2.192167 2.841214 -1.000000 0.000000 0.000000 1.000000 0.000000
-2.985367 -2.192167 2.841214 -1.000000 0.000000 0.000000 1.000000 0.500000
-2.985367 2.192167 3.133786 0.000000 1.000000 0.000000 0.979148 0.000000
2.985367 2.192167 2.841214 0.000000 1.000000 0.000000 0.958295 0.680917
-2.985367 2.192167 2.841214 0.000000 1.000000 0.000000 0.958295 0.000000
2.985367 2.192167 3.133786 1.000000 0.000000 0.000000 0.979148 1.000000
2.985367 -2.192167 2.841214 1.000000 0.000000 0.000000 1.000000 0.500000
2.985367 2.192167 2.841214 1.000000 0.000000 0.000000 1.000000 1.000000
2.985367 -2.192167 3.133786 0.000000 -1.000000 0.000000 0.958295 0.000000
-2.985367 -2.192167 2.841214 0.000000 -1.000000 0.000000 0.937443 0.680917
2.985367 -2.192167 2.841214 0.000000 -1.000000 0.000000 0.937443 0.000000
2.985367 2.192167 2.841214 0.000000 0.000000 -1.000000 0.468722 0.000000
-2.985367 -2.192167 2.841214 0.000000 0.000000 -1.000000 0.937443 0.680917
-2.985367 2.192167 2.841214 0.000000 0.000000 -1.000000 0.468722 0.680917
-2.985367 2.192167 3.133786 0.000000 0.000000 1.000000 0.468722 0.680917
2.985367 -2.192167 3.133786 0.000000 0.000000 1.000000 0.000000 0.000000
2.985367 2.192167 3.133786 0.000000 0.000000 1.000000 0.468721 0.000000
2.500000 -1.250000 3.000000 0.000000 1.000000 0.000000 0.245686 0.909001
2.676777 -1.323223 0.000000 0.707083 0.707083 0.000000 0.226787 0.680917
2.500000 -1.250000 0.000000 0.000000 1.000000 0.000000 0.245686 0.680917
2.676777 -1.323223 3.000000 0.707083 0.707083 0.000000 0.491372 0.909001
2.750000 -1.500000 0.000000 1.000000 0.000000 0.000000 0.472473 0.680917
2.676777 -1.323223 0.000000 0.707083 0.707083 0.000000 0.491372 0.680917
2.750000 -1.500000 3.000000 1.000000 0.000000 0.000000 0.472473 0.909001
2.676777 -1.676777 0.000000 0.707083 -0.707083 0.000000 0.453574 0.680917
2.676777 -1.676777 3.000000 0.707083 -0.707083 0.000000 0.037798 0.680917
2.500000 -1.750000 0.000000 0.000000 -1.000000 0.000000 0.056697 0.909001
2.676777 -1.676777 0.000000 0.707083 -0.707083 0.000000 0.037798 0.909001
2.500000 -1.750000 3.000000 0.000000 -1.000000 0.000000 0.056697 0.680917
2.323223 -1.676777 0.000000 -0.707083 -0.707083 0.000000 0.075596 0.909001
2.323223 -1.676777 3.000000 -0.707083 -0.707083 0.000000 0.340180 0.680917
2.250000 -1.500000 0.000000 -1.000000 0.000000 0.000000 0.359079 0.909001
2.323223 -1.676777 0.000000 -0.707083 -0.707083 0.000000 0.340180 0.909001
2.250000 -1.500000 3.000000 0.000000 0.000000 1.000000 0.738456 0.733597
2.676777 -1.676777 3.000000 0.000000 0.000000 1.000000 0.703535 0.696346
2.750000 -1.500000 3.000000 0.000000 0.000000 1.000000 0.718000 0.680917
2.250000 -1.500000 3.000000 -1.000000 0.000000 0.000000 0.359079 0.680917
2.323223 -1.323223 0.000000 -0.707083 0.707083 0.000000 0.377978 0.909001
2.323223 -1.323223 3.000000 -0.707083 0.707083 0.000000 0.264585 0.909001
2.323223 -1.323223 0.000000 -0.707083 0.707083 0.000000 0.264585 0.680917
2.676777 -1.676777 0.000000 0.000000 0.000000 -1.000000 0.738456 0.733597
2.323223 -1.676777 0.000000 0.000000 0.000000 -1.000000 0.752920 0.770848
2.323223 -1.323223 0.000000 0.000000 0.000000 -1.000000 0.718000 0.786278
2.500000 1.750000 3.000000 0.000000 1.000000 0.000000 0.170090 0.680917
2.676777 1.676777 0.000000 0.707083 0.707083 0.000000 0.188989 0.909001
2.500000 1.750000 0.000000 0.000000 1.000000 0.000000 0.170090 0.909001
2.676777 1.676777 3.000000 0.707083 0.707083 0.000000 0.604765 0.909001
2.750000 1.500000 0.000000 1.000000 0.000000 0.000000 0.585866 0.680917
2.676777 1.676777 0.000000 0.707083 0.707083 0.000000 0.604765 0.680917
2.750000 1.500000 3.000000 1.000000 0.000000 0.000000 0.585866 0.909001
2.676777 1.323223 0.000000 0.707083 -0.707083 0.000000 0.566967 0.680917
2.676777 1.323223 3.000000 0.707083 -0.707083 0.000000 0.075596 0.680917
2.500000 1.250000 0.000000 0.000000 -1.000000 0.000000 0.094495 0.909001
2.676777 1.323223 0.000000 0.707083 -0.707083 0.000000 0.075596 0.909001
2.500000 1.250000 3.000000 0.000000 -1.000000 0.000000 0.094495 0.680917
2.323223 1.323223 0.000000 -0.707083 -0.707083 0.000000 0.113394 0.909001
2.323223 1.323223 3.000000 -0.707083 -0.707083 0.000000 0.302383 0.680917
2.250000 1.500000 0.000000 -1.000000 0.000000 0.000000 0.321281 0.909001
2.323223 1.323223 0.000000 -0.707083 -0.707083 0.000000 0.302383 0.909001
2.250000 1.500000 3.000000 0.000000 0.000000 1.000000 0.668615 0.838959
2.676777 1.323223 3.000000 0.000000 0.000000 1.000000 0.668615 0.786278
2.750000 1.500000 3.000000 0.000000 0.000000 1.000000 0.689071 0.786278
2.250000 1.500000 3.000000 -1.000000 0.000000 0.000000 0.321281 0.680917
2.323223 1.676777 0.000000 -0.707083 0.707083 0.000000 0.340180 0.909001
2.323223 1.676777 3.000000 -0.707083 0.707083 0.000000 0.151191 0.680917
2.323223 1.676777 0.000000 -0.707083 0.707083 0.000000 0.151191 0.909001
2.676777 1.323223 0.000000 0.000000 0.000000 -1.000000 0.654150 0.801708
2.323223 1.323223 0.000000 0.000000 0.000000 -1.000000 0.639685 0.838959
2.323223 1.676777 0.000000 0.000000 0.000000 -0.999969 0.604765 0.823529
-2.500000 1.750000 3.000000 0.000000 1.000000 0.000000 0.283484 0.680917
-2.323223 1.676777 -0.000000 0.707083 0.707083 0.000000 0.302383 0.909001
-2.500000 1.750000 -0.000000 0.000000 1.000000 0.000000 0.283484 0.909001
-2.323223 1.676777 3.000000 0.707083 0.707083 0.000000 0.566967 0.909001
-2.250000 1.500000 -0.000000 1.000000 0.000000 0.000000 0.548068 0.680917
-2.323223 1.676777 -0.000000 0.707083 0.707083 0.000000 0.566967 0.680917
-2.250000 1.500000 3.000000 1.000000 0.000000 0.000000 0.548068 0.909001
-2.323223 1.323223 -0.000000 0.707083 -0.707083 0.000000 0.529169 0.680917
-2.323223 1.323223 3.000000 0.707083 -0.707083 0.000000 0.113394 0.680917
-2.500000 1.250000 -0.000000 0.000000 -1.000000 0.000000 0.132292 0.909001
-2.323223 1.323223 -0.000000 0.707083 -0.707083 0.000000 0.113394 0.909001
-2.500000 1.250000 3.000000 0.000000 -1.000000 0.000000 0.132292 0.680917
-2.676777 1.323223 -0.000000 -0.707083 -0.707083 0.000000 0.151191 0.909001
-2.676777 1.323223 3.000000 -0.707083 -0.707083 0.000000 0.415776 0.909001
-2.750000 1.500000 -0.000000 -1.000000 0.000000 0.000000 0.396877 0.680917
-2.676777 1.323223 -0.000000 -0.707083 -0.707083 0.000000 0.415776 0.680917
-2.750000 1.500000 3.000000 0.000000 0.000000 1.000000 0.703535 0.770848
-2.500000 1.250000 3.000000 0.000000 0.000000 1.000000 0.668615 0.786278
-2.250000 1.500000 3.000000 0.000000 0.000000 1.000000 0.654150 0.749027
-2.750000 1.500000 3.000000 -1.000000 0.000000 0.000000 0.396877 0.909001
-2.676777 1.676777 -0.000000 -0.707083 0.707083 0.000000 0.377978 0.680917
-2.676777 1.676777 3.000000 -0.707083 0.707083 0.000000 0.264585 0.680917
-2.676777 1.676777 -0.000000 -0.707083 0.707083 0.000000 0.264585 0.909001
-2.323223 1.323223 -0.000000 0.000000 0.000000 -1.000000 0.619229 0.680917
-2.750000 1.500000 -0.000000 0.000000 0.000000 -1.000000 0.654150 0.718168
-2.676777 1.676777 -0.000000 0.000000 0.000000 -1.000000 0.639685 0.733597
-2.500000 -1.250000 3.000000 0.000000 1.000000 0.000000 0.207888 0.680917
-2.323223 -1.323223 -0.000000 0.707083 0.707083 0.000000 0.226787 0.909001
-2.500000 -1.250000 -0.000000 0.000000 1.000000 0.000000 0.207888 0.909001
-2.323223 -1.323223 3.000000 0.707083 0.707083 0.000000 0.529169 0.909001
-2.250000 -1.500000 -0.000000 1.000000 0.000000 0.000000 0.510270 0.680917
-2.323223 -1.323223 -0.000000 0.707083 0.707083 0.000000 0.529169 0.680917
-2.250000 -1.500000 3.000000 1.000000 0.000000 0.000000 0.510270 0.909001
-2.323223 -1.676777 -0.000000 0.707083 -0.707083 0.000000 0.491372 0.680917
-2.323223 -1.676777 3.000000 0.707083 -0.707083 0.000000 0.000000 0.680917
-2.500000 -1.750000 -0.000000 0.000000 -1.000000 0.000000 0.018899 0.909001
-2.323223 -1.676777 -0.000000 0.707083 -0.707083 0.000000 0.000000 0.909001
-2.500000 -1.750000 3.000000 0.000000 -1.000000 0.000000 0.018899 0.680917
-2.676777 -1.676777 -0.000000 -0.707083 -0.707083 0.000000 0.037798 0.909001
-2.676777 -1.676777 3.000000 -0.707083 -0.707083 0.000000 0.453574 0.909001
-2.750000 -1.500000 -0.000000 -1.000000 0.000000 0.000000 0.434675 0.680917
-2.676777 -1.676777 -0.000000 -0.707083 -0.707083 0.000000 0.453574 0.680917
-2.750000 -1.500000 3.000000 0.000000 0.000000 1.000000 0.703535 0.696347
-2.500000 -1.750000 3.000000 0.000000 0.000000 1.000000 0.689071 0.733597
-2.250000 -1.500000 3.000000 0.000000 0.000000 1.000000 0.654150 0.718167
-2.750000 -1.500000 3.000000 -1.000000 0.000000 0.000000 0.434675 0.909001
-2.676777 -1.323223 -0.000000 -0.707083 0.707083 0.000000 0.415776 0.680917
-2.676777 -1.323223 3.000000 -0.707083 0.707083 0.000000 0.188989 0.680917
-2.676777 -1.323223 -0.000000 -0.707083 0.707083 0.000000 0.188989 0.909001
-2.323223 -1.676777 -0.000000 0.000000 0.000000 -1.000000 0.619229 0.733597
-2.750000 -1.500000 -0.000000 0.000000 0.000000 -1.000000 0.654150 0.770848
-2.676777 -1.323223 -0.000000 0.000000 0.000000 -1.000000 0.639685 0.786278
-2.985367 2.192167 3.133786 -1.000000 0.000000 0.000000 0.979148 0.000000
2.985367 2.192167 3.133786 0.000000 1.000000 0.000000 0.979148 0.680917
2.985367 -2.192167 3.133786 1.000000 0.000000 0.000000 0.979148 0.500000
-2.985367 -2.192167 3.133786 0.000000 -1.000000 0.000000 0.958295 0.680917
2.985367 -2.192167 2.841214 0.000000 0.000000 -1.000000 0.937443 0.000000
-2.985367 -2.192167 3.133786 0.000000 0.000000 1.000000 0.000000 0.680917
2.676777 -1.323223 3.000000 0.707083 0.707083 0.000000 0.226787 0.909001
2.676777 -1.676777 3.000000 0.707083 -0.707083 0.000000 0.453574 0.909001
2.323223 -1.676777 3.000000 -0.707083 -0.707083 0.000000 0.075596 0.680917
2.676777 -1.323223 3.000000 0.000000 0.000000 1.000000 0.738456 0.680917
2.500000 -1.250000 3.000000 0.000000 0.000000 1.000000 0.752920 0.696346
2.323223 -1.323223 3.000000 0.000000 0.000000 1.000000 0.752920 0.718168
2.323223 -1.676777 3.000000 0.000000 0.000000 1.000000 0.718000 0.733597
2.500000 -1.750000 3.000000 0.000000 0.000000 1.000000 0.703535 0.718168
2.323223 -1.323223 3.000000 -0.707083 0.707083 0.000000 0.377978 0.680917
2.500000 -1.250000 0.000000 0.000000 0.000000 -1.000000 0.703535 0.770848
2.676777 -1.323223 0.000000 0.000000 0.000000 -1.000000 0.703535 0.749027
2.750000 -1.500000 0.000000 0.000000 0.000000 -1.000000 0.718000 0.733597
2.500000 -1.750000 0.000000 0.000000 0.000000 -1.000000 0.752920 0.749027
2.250000 -1.500000 0.000000 0.000000 0.000000 -1.000000 0.738456 0.786278
2.676777 1.676777 3.000000 0.707083 0.707083 0.000000 0.188989 0.680917
2.676777 1.323223 3.000000 0.707083 -0.707083 0.000000 0.566967 0.909001
2.323223 1.323223 3.000000 -0.707083 -0.707083 0.000000 0.113393 0.680917
2.676777 1.676777 3.000000 0.000000 0.000000 1.000000 0.703535 0.801708
2.500000 1.750000 3.000000 0.000000 0.000000 1.000000 0.703535 0.823529
2.323223 1.676777 3.000000 0.000000 0.000000 1.000000 0.689071 0.838959
2.323223 1.323223 3.000000 0.000000 0.000000 1.000000 0.654150 0.823529
2.500000 1.250000 3.000000 0.000000 0.000000 1.000000 0.654150 0.801708
2.323223 1.676777 3.000000 -0.707083 0.707083 0.000000 0.340180 0.680917
2.500000 1.750000 0.000000 0.000000 0.000000 -1.000000 0.604765 0.801708
2.676777 1.676777 0.000000 0.000000 0.000000 -0.999969 0.619229 0.786278
2.750000 1.500000 0.000000 0.000000 0.000000 -1.000000 0.639685 0.786278
2.500000 1.250000 0.000000 0.000000 0.000000 -1.000000 0.654150 0.823529
2.250000 1.500000 0.000000 0.000000 0.000000 -1.000000 0.619229 0.838959
-2.323223 1.676777 3.000000 0.707083 0.707083 0.000000 0.302383 0.680917
-2.323223 1.323223 3.000000 0.707083 -0.707083 0.000000 0.529169 0.909001
-2.676777 1.323223 3.000000 -0.707083 -0.707083 0.000000 0.151191 0.680917
-2.323223 1.676777 3.000000 0.000000 0.000000 1.000000 0.668615 0.733597
-2.500000 1.750000 3.000000 0.000000 0.000000 1.000000 0.689071 0.733597
-2.676777 1.676777 3.000000 0.000000 0.000000 1.000000 0.703535 0.749027
-2.676777 1.323223 3.000000 0.000000 0.000000 1.000000 0.689071 0.786278
-2.323223 1.323223 3.000000 0.000000 0.000000 1.000000 0.654150 0.770848
-2.676777 1.676777 3.000000 -0.707083 0.707083 0.000000 0.377978 0.909001
-2.500000 1.750000 -0.000000 0.000000 0.000000 -1.000000 0.619229 0.733597
-2.323223 1.676777 -0.000000 0.000000 0.000000 -1.000000 0.604765 0.718168
-2.250000 1.500000 -0.000000 0.000000 0.000000 -1.000000 0.604765 0.696347
-2.500000 1.250000 -0.000000 0.000000 0.000000 -1.000000 0.639685 0.680917
-2.676777 1.323223 -0.000000 0.000000 0.000000 -1.000000 0.654150 0.696346
-2.323223 -1.323223 3.000000 0.707083 0.707083 0.000000 0.226787 0.680917
-2.323223 -1.676777 3.000000 0.707083 -0.707083 0.000000 0.491371 0.909001
-2.676777 -1.676777 3.000000 -0.707083 -0.707083 0.000000 0.037798 0.680917
-2.323223 -1.323223 3.000000 0.000000 0.000000 1.000000 0.654150 0.696346
-2.500000 -1.250000 3.000000 0.000000 0.000000 1.000000 0.668615 0.680917
-2.676777 -1.323223 3.000000 0.000000 0.000000 1.000000 0.689071 0.680917
-2.676777 -1.676777 3.000000 0.000000 0.000000 1.000000 0.703535 0.718168
-2.323223 -1.676777 3.000000 0.000000 0.000000 1.000000 0.668615 0.733597
-2.676777 -1.323223 3.000000 -0.707083 0.707083 0.000000 0.415776 0.909001
-2.500000 -1.250000 -0.000000 0.000000 0.000000 -1.000000 0.619229 0.786278
-2.323223 -1.323223 -0.000000 0.000000 0.000000 -1.000000 0.604765 0.770848
-2.250000 -1.500000 -0.000000 0.000000 0.000000 -1.000000 0.604765 0.749027
-2.500000 -1.750000 -0.000000 0.000000 0.000000 -1.000000 0.639685 0.733597
-2.676777 -1.676777 -0.000000 0.000000 0.000000 -1.000000 0.654150 0.749027
3 0 1 2
3 3 4 5
3 6 7 8
3 9 10 11
3 12 13 14
3 15 16 17
3 18 19 20
3 21 22 23
3 24 25 22
3 26 27 28
3 29 30 27
3 31 32 33
3 34 35 36
3 37 38 32
3 39 20 40
3 41 42 43
3 44 45 46
3 47 48 49
3 50 51 48
3 52 53 54
3 55 56 53
3 57 58 59
3 60 61 62
3 63 64 58
3 65 46 66
3 67 68 69
3 70 71 72
3 73 74 75
3 76 77 74
3 78 79 80
3 81 82 79
3 83 84 85
3 86 87 88
3 89 90 84
3 91 72 92
3 93 94 95
3 96 97 98
3 99 100 101
3 102 103 100
3 104 105 106
3 107 108 105
3 109 110 111
3 112 113 114
3 115 116 110
3 117 98 118
3 119 120 121
3 0 122 1
3 3 123 4
3 6 124 7
3 9 125 10
3 12 126 13
3 15 127 16
3 18 128 19
3 21 24 22
3 24 129 25
3 26 29 27
3 29 130 30
3 31 37 32
3 36 131 132
3 132 133 36
3 34 134 135
3 135 35 34
3 36 133 34
3 37 136 38
3 39 18 20
3 43 137 138
3 138 139 41
3 41 140 42
3 42 141 43
3 43 138 41
3 44 142 45
3 47 50 48
3 50 143 51
3 52 55 53
3 55 144 56
3 57 63 58
3 62 145 146
3 146 147 62
3 60 148 149
3 149 61 60
3 62 147 60
3 63 150 64
3 65 44 46
3 69 151 152
3 152 153 67
3 67 154 68
3 68 155 69
3 69 152 67
3 70 156 71
3 73 76 74
3 76 157 77
3 78 81 79
3 81 158 82
3 83 89 84
3 88 159 160
3 160 161 86
3 86 162 87
3 87 163 88
3 88 160 86
3 89 164 90
3 91 70 72
3 95 165 166
3 166 167 95
3 93 168 169
3 169 94 93
3 95 167 93
3 96 170 97
3 99 102 100
3 102 171 103
3 104 107 105
3 107 172 108
3 109 115 110
3 114 173 174
3 174 175 112
3 112 176 113
3 113 177 114
3 114 174 112
3 115 178 116
3 117 96 98
3 121 179 180
3 180 181 121
3 119 182 183
3 183 120 119
3 121 181 119
